<?xml version="1.0" encoding="UTF-8"?>
<svg data-bbox="319.617 98.045 387.407 363.881" viewBox="0 0 1024 544" xmlns="http://www.w3.org/2000/svg" data-type="shape">
    <g>
        <path d="M418.006 98.583H525.83c.353 2.204-1.062 2.369-2.012 2.806-28.386 13.04-47.656 34.653-59.182 63.367-1.644 4.098-3.778 5.518-8.086 5.478-19.662-.184-39.328.07-58.989-.179-4.9-.062-6.344 1.689-6.314 6.31.14 20.83.158 41.661-.018 62.49-.04 4.747 2.552 4.922 6.056 4.917 35.161-.048 70.323-.032 105.484-.029 7.594 0 7.078.055 7.716 7.698 1.171 14.058-.735 26.67-10.766 37.775-5.398 5.975-8.048 14.17-10.59 21.935-1.338 4.087-3.576 5.212-7.689 5.189-27.328-.158-54.658-.084-81.987-.072-7.806.003-8.142.35-8.144 8.208-.008 43.494-.009 86.987-.019 130.48-.002 6.934-.017 6.974-6.915 6.97-19.986-.01-39.973-.163-59.958-.006-4.822.037-4.803-2.62-4.8-6.077.038-42.66.003-85.32.002-127.98-.002-74.156.006-148.311.01-222.466 0-6.713.005-6.59 6.425-6.845 30.486-1.208 60.97.138 91.952.031"/>
        <path d="M504.23 355.002c-.004 6.165.07 11.832-.027 17.495-.287 16.793-13.207 29.697-29.936 29.759-22.827.085-45.655-.055-68.482.1-4.229.028-6.01-1.142-5.916-5.645.09-4.274.648-6.96 5.92-6.821 10.49.276 20.993.119 31.49.06 17.283-.098 27.292-10.116 27.354-27.34.04-10.997.259-22-.053-32.988-.162-5.675 3.372-4.824 6.853-5.066 3.848-.267 5.295.941 5.062 5.05-.377 6.644-.042 13.325-.116 19.99-.149 13.53 2.139 27.498-7.645 39.288 12.603 3.242 22.67-4.295 22.972-16.309.319-12.642-.769-25.302.859-37.933 2.554-19.816 9.707-37.658 22.537-53.03 2.76-3.309 3.895-6.665 3.857-10.895-.153-16.661-.113-33.325-.077-49.987.079-36.821 26.311-63.036 63.038-63.038 39.323-.001 78.647-.002 117.97.006 5.761.002 8.853 5.497 6.082 10.752-1.093 2.072-3.1 1.676-4.856 1.683-11.164.048-22.328.024-33.491.026-26.16.005-52.333.496-78.476-.16-15.962-.4-30.146 11.716-30.688 30.052-.448 15.15-.039 30.324-.154 45.486-.03 3.863 1.292 4.524 4.836 3.384 12.143-3.907 24.633-5.333 37.4-5.267 33.158.172 66.317.053 99.475.116 2.032.004 4.923-.986 5.822 1.502 1.122 3.105 1.168 6.714-.119 9.776-.873 2.079-3.587 1.197-5.503 1.2-28.16.042-56.32-.09-84.478.083-13.943.085-27.942-1.141-41.76 2.321-41.58 10.42-69.494 45.856-69.733 88.854-.013 2.332-.011 4.665-.016 7.496m27.543-142.729c-1.006 17.21-.212 34.406-.474 52.069 4.213-1.059 6.36-3.93 9.368-5.18 4.86-2.02 5.898-5.574 6.087-10.658.838-22.48-2.867-45.176 3.157-68.165-10.547 8.256-16.163 18.544-18.138 31.934"/>
        <path d="M532.095 446.145c-13.884 11.031-29.52 15.747-46.737 15.748-26.333.003-52.666.026-79 .018-5.785-.001-8.737-5.315-5.958-10.584 1.247-2.365 3.464-1.611 5.327-1.615 26.666-.049 53.333-.014 80-.037 34.083-.029 60.62-26.32 60.908-60.394.104-12.333.429-24.683-.07-36.996-.845-20.813 15.171-47.753 47.61-48.4 35.652-.71 71.33-.064 106.996-.264 5.51-.03 5.083 3.013 5.243 6.7.178 4.072-.76 6.037-5.445 6.017-35-.148-70-.094-105-.044-21.534.03-37.58 16.11-37.623 37.612-.025 12.167-.067 24.334 0 36.5.123 22.63-8.847 40.975-26.251 55.739"/>
        <path d="M592.154 273.739c36.133-.013 71.786-.017 107.438-.014 5.955 0 9.262 5.754 6.368 10.976-.8 1.442-2.138 1.462-3.443 1.486-3.664.068-7.33.059-10.995.06-31.987.004-63.974-.022-95.961.014-34.778.04-63.971 29.236-64.295 63.957-.112 11.97 1.038 23.986-.848 35.912-4.1 25.927-26.452 45.716-52.652 46.056-24.153.315-48.314-.03-72.47.157-4.793.037-5.441-2.246-5.404-6.153.037-3.954.357-6.569 5.575-6.517 23.321.235 46.668-.517 69.964.281 19.249.66 43.86-16.11 43.567-43.368-.142-13.112-1.19-26.294 1.447-39.352 7.304-36.151 34.547-60.498 71.71-63.495"/>
        <path d="M517.916 128.919c-23.363 16.815-35.914 39.758-40.274 67.414-1.004 6.364-.703 12.944-.86 19.428-.118 4.827-.157 9.665.04 14.487.24 5.844-3.753 4.924-7.412 5.17-4.334.292-4.79-2.023-4.798-5.517-.045-18.972-.865-37.966 5.783-56.291 15.062-41.521 44.092-66.326 87.696-73.96 4.79-.839 9.59-1.011 14.422-1.02 43.15-.085 86.298-.135 129.447-.329 4.714-.02 4.327 2.823 4.412 5.927.099 3.618.085 6.275-5.044 6.252-41.151-.185-82.304-.1-123.456-.123-6.848-.003-13.611.76-20.334 1.977-14.304 2.59-27.444 7.984-39.622 16.585"/>
        <path d="M603 127.696c32.666.004 64.831-.007 96.997.052 2.037.004 4.932-.994 5.843 1.458 1.15 3.094 1.104 6.668-.089 9.786-.755 1.973-3.23 1.254-4.988 1.257-18.332.037-36.665.02-54.998.02-22.499 0-44.998-.045-67.497.013-41.436.107-73.665 32.089-73.998 73.375-.048 5.999-.082 11.999-.044 17.998.026 4.195-2.986 3.87-5.59 3.625-2.593-.245-6.662 1.74-6.849-3.277-.723-19.429-.361-38.72 8.938-56.563 14.163-27.177 36.91-42.095 66.847-46.765 11.61-1.812 23.287-.606 35.428-.98"/>
    </g>
</svg>
